<svg width="33" height="33" viewBox="0 0 33 33" fill="none" xmlns="http://www.w3.org/2000/svg">
<path d="M16.5001 0.920227C7.67897 0.920227 0.525917 8.07196 0.525917 16.8944C0.525917 23.9523 5.10301 29.9401 11.4501 32.0523C12.2484 32.2002 12.5415 31.7058 12.5415 31.2839C12.5415 30.903 12.5267 29.6446 12.5198 28.3098C8.07576 29.2761 7.13802 26.4251 7.13802 26.4251C6.41136 24.5787 5.36437 24.0877 5.36437 24.0877C3.91503 23.0963 5.47362 23.1166 5.47362 23.1166C7.0777 23.2293 7.92234 24.7628 7.92234 24.7628C9.34708 27.2049 11.6593 26.4989 12.5709 26.0907C12.7142 25.0583 13.1282 24.3536 13.5851 23.9546C10.037 23.5507 6.30714 22.181 6.30714 16.0601C6.30714 14.3161 6.93116 12.8911 7.95302 11.7724C7.78716 11.3701 7.24039 9.74535 8.10777 7.54502C8.10777 7.54502 9.44918 7.1157 12.5018 9.18244C13.776 8.8285 15.1426 8.65101 16.5001 8.64492C17.8577 8.65101 19.2253 8.8285 20.5019 9.18244C23.5508 7.1157 24.8904 7.54502 24.8904 7.54502C25.7599 9.74535 25.2128 11.3701 25.047 11.7724C26.0712 12.8911 26.691 14.3161 26.691 16.0601C26.691 22.1955 22.954 23.5465 19.397 23.9419C19.9699 24.4377 20.4805 25.4098 20.4805 26.9001C20.4805 29.0375 20.4619 30.7577 20.4619 31.2839C20.4619 31.709 20.7495 32.2071 21.5592 32.0502C27.9028 29.9356 32.4741 23.9499 32.4741 16.8944C32.4741 8.07196 25.3221 0.920227 16.5001 0.920227ZM6.50878 23.6758C6.4736 23.7552 6.34874 23.779 6.23499 23.7245C6.11913 23.6724 6.05406 23.5642 6.09162 23.4846C6.12601 23.4028 6.25113 23.3801 6.36673 23.4348C6.48286 23.487 6.54899 23.5962 6.50878 23.6758ZM7.29453 24.3769C7.21835 24.4476 7.06942 24.4148 6.96837 24.3031C6.86388 24.1918 6.84431 24.0429 6.92155 23.9712C7.00012 23.9005 7.14455 23.9336 7.2493 24.045C7.35379 24.1577 7.37416 24.3055 7.29453 24.3769ZM7.83359 25.274C7.73572 25.342 7.57568 25.2782 7.47674 25.1362C7.37887 24.9941 7.37887 24.8238 7.47886 24.7555C7.57806 24.6873 7.73572 24.7487 7.83597 24.8896C7.93358 25.0341 7.93358 25.2044 7.83359 25.274ZM8.74525 26.3129C8.65769 26.4095 8.4712 26.3836 8.33471 26.2518C8.19504 26.123 8.15615 25.9402 8.24397 25.8437C8.33259 25.7468 8.52014 25.7741 8.65769 25.9048C8.7963 26.0333 8.83863 26.2174 8.74525 26.3129ZM9.92348 26.6636C9.88486 26.7888 9.70525 26.8456 9.52431 26.7925C9.34364 26.7377 9.2254 26.5912 9.2619 26.4647C9.29947 26.3388 9.47987 26.2796 9.66213 26.3364C9.84254 26.3909 9.96105 26.5364 9.92348 26.6636ZM11.2644 26.8124C11.2689 26.9442 11.1154 27.0534 10.9255 27.0558C10.7345 27.06 10.58 26.9534 10.5779 26.8238C10.5779 26.6907 10.7279 26.5825 10.9189 26.5794C11.1088 26.5757 11.2644 26.6815 11.2644 26.8124ZM12.5816 26.7619C12.6044 26.8905 12.4724 27.0225 12.2838 27.0577C12.0983 27.0915 11.9267 27.0122 11.9031 26.8847C11.8801 26.7529 12.0145 26.6209 12.1996 26.5868C12.3885 26.554 12.5576 26.6312 12.5816 26.7619Z" fill="white"/>
</svg>
